<svg width="13" height="14" viewBox="0 0 13 14" fill="none" xmlns="http://www.w3.org/2000/svg">
<path fill-rule="evenodd" clip-rule="evenodd" d="M0.134874 2.48218C2.48716 2.45293 4.74889 1.57093 6.49998 0C8.25094 1.57122 10.5127 2.45352 12.8651 2.48299C12.9545 3.01111 13 3.55549 13 4.1088C13 8.35409 10.2862 11.9656 6.49998 13.3038C2.71374 11.9648 0 8.35328 0 4.10798C0 3.55386 0.0463122 3.01111 0.134874 2.48218ZM9.5119 5.49492C9.6599 5.34168 9.7418 5.13644 9.73995 4.92341C9.7381 4.71037 9.65265 4.50659 9.502 4.35594C9.35136 4.2053 9.14758 4.11985 8.93454 4.118C8.72151 4.11615 8.51627 4.19804 8.36303 4.34605L5.68748 7.0216L4.63692 5.97104C4.48368 5.82304 4.27844 5.74114 4.06541 5.74299C3.85237 5.74484 3.64859 5.83029 3.49795 5.98094C3.3473 6.13158 3.26185 6.33537 3.26 6.5484C3.25815 6.76143 3.34005 6.96667 3.48805 7.11991L5.11304 8.7449C5.26541 8.89722 5.47203 8.98279 5.68748 8.98279C5.90292 8.98279 6.10955 8.89722 6.26191 8.7449L9.5119 5.49492Z" fill="#6B7280"/>
</svg>
